<?xml version="1.0"?>
<svg version="1.1" xmlns="http://www.w3.org/2000/svg" width="400px" height="200px" style="border: dashed 2px #aaa"><path fill="#" d="M58.6,93.65l-0.35,2.9c-0.1,0.85-0.65,1.05-1.55,1.05l-9.05,0l0,28.25c0,0.95-0.2,1.15-1.05,1.15l-4.4,0c-0.9,0-1.05-0.2-1.05-1.1l0-28.3l-9.35,0c-0.85,0-1.15-0.35-1.15-1.2l0-2.95c0-0.75,0.35-1.05,1.1-1.05l25.3,0c1.3,0,1.65,0.4,1.55,1.25z M88.425,126.05c0,0.6-0.4,0.95-1,0.95l-2.4,0c-2.6,0-3.75-1.25-4.1-2.95l-0.1,0c-1.25,1.85-4.5,3.55-7.25,3.55c-7.05,0-10.25-5.8-10.25-12.3c0-8.65,5.2-13.2,10.8-13.2c2.65,0,5.15,1.2,6.4,2.9l0.1-1.35c0.05-0.55,0.45-0.9,1.05-0.9l3.5,0c0.65,0,1.05,0.35,1.05,1.1l0,17.35c0,0.7,0.1,1.2,0.3,1.45c0.15,0.15,0.35,0.2,0.6,0.2l0.4,0c0.6,0,0.9,0.2,0.9,0.85l0,2.35z M80.175,119.25l0-9.65c-1-1.45-3.05-2.55-4.95-2.55c-3.05,0-5.65,2.6-5.65,7.85c0,4.2,1.6,7.75,5.3,7.75c2.45,0,4.55-1.85,5.3-3.4z M111.9,119.85c0,5.25-4.55,7.75-9.65,7.75c-2.6,0-5.45-0.75-7.7-1.75c-0.45-0.2-0.6-0.5-0.6-0.8c0-0.15,0.05-0.3,0.1-0.45l0.8-2.55c0.15-0.5,0.4-0.7,0.7-0.7c0.15,0,0.3,0,0.55,0.1c2.2,0.9,4.55,1.55,6.3,1.55c2.2,0,3.7-1,3.7-2.65c0-1.4-0.95-2.15-3-2.95l-3.95-1.5c-2.85-1.05-5.15-3.25-5.15-6.65c0-4.9,4.6-7.15,9.05-7.15c2.4,0,4.75,0.4,7.25,1.5c0.4,0.2,0.6,0.4,0.6,0.7c0,0.15-0.05,0.3-0.1,0.5l-0.85,2.7c-0.1,0.35-0.35,0.55-0.7,0.55c-0.15,0-0.35-0.05-0.5-0.1c-1.65-0.65-3.8-1.2-5.4-1.2c-2.1,0-3.15,1.15-3.15,2.3c0,1.1,0.55,1.8,2.45,2.55l4.5,1.85c2.65,1.1,4.75,3.15,4.75,6.4z M139.525,126.4c0,0.45-0.45,0.6-0.95,0.6l-4.3,0c-0.9,0-1.5-0.25-2-1.05l-6.4-10.5l-0.55,0.5l0,6.95l0,2.85c0,0.85-0.35,1.25-1.15,1.25l-3.75,0c-0.75,0-1.15-0.45-1.15-1.2l0-32.8c0-0.8,0.3-1.1,1.05-1.2l3.65-0.5c0.15,0,0.25-0.05,0.4-0.05c0.6,0,0.95,0.3,0.95,1.15l0,8.4l0,11.65l0.1,0l6.55-9c0.4-0.55,0.7-0.7,1.35-0.7l4.45,0c0.4,0,0.65,0.2,0.65,0.5c0,0.15-0.05,0.35-0.2,0.55l-7.15,9l8.1,12.65c0.2,0.3,0.35,0.65,0.35,0.95z M198.475,125.65c0.05,0.85-0.2,1.35-1.15,1.35l-4.05,0c-1.05,0-1.25-0.5-1.3-1.65l-0.7-20.3l-0.1,0l-8.5,21.05c-0.3,0.8-0.8,0.9-1.35,0.9l-1.75,0c-0.75,0-1.2-0.15-1.55-0.95l-9.45-21l-0.1,0l-0.45,20.7c0,1.1-0.45,1.25-1.35,1.25l-3.4,0c-0.95,0-1.35-0.35-1.3-1.3l1.25-31.95c0.05-1.05,0.4-1.35,1.2-1.35l2.95,0c1,0,1.35,0.35,1.7,1.1l11.55,24.7l0.1,0l10.55-24.7c0.3-0.75,0.7-1.1,1.6-1.1l2.95,0c0.8,0,1.1,0.3,1.15,1.1z M231.7,126.05c0,0.6-0.4,0.95-1,0.95l-2.4,0c-2.6,0-3.75-1.25-4.1-2.95l-0.1,0c-1.25,1.85-4.5,3.55-7.25,3.55c-7.05,0-10.25-5.8-10.25-12.3c0-8.65,5.2-13.2,10.8-13.2c2.65,0,5.15,1.2,6.4,2.9l0.1-1.35c0.05-0.55,0.45-0.9,1.05-0.9l3.5,0c0.65,0,1.05,0.35,1.05,1.1l0,17.35c0,0.7,0.1,1.2,0.3,1.45c0.15,0.15,0.35,0.2,0.6,0.2l0.4,0c0.6,0,0.9,0.2,0.9,0.85l0,2.35z M223.45,119.25l0-9.65c-1-1.45-3.05-2.55-4.95-2.55c-3.05,0-5.65,2.6-5.65,7.85c0,4.2,1.6,7.75,5.3,7.75c2.45,0,4.55-1.85,5.3-3.4z M260.775,125.7c0,0.85-0.3,1.3-1.2,1.3l-3.6,0c-0.9,0-1.2-0.45-1.2-1.3l0-13.6c0-2.75-0.75-4.7-3.8-4.7c-1.95,0-4.35,1.05-5.9,2.4l0,15.95c0,0.85-0.35,1.25-1.2,1.25l-3.65,0c-0.75,0-1.2-0.4-1.2-1.2l0-21.8c0-0.8,0.35-1.25,1.25-1.25l3.25,0c0.7,0,1.15,0.2,1.2,0.95l0.05,1.3c2.3-1.85,5.2-2.9,8.1-2.9c5.6,0,7.9,3.5,7.9,8.95l0,14.65z M293.6,126.05c0,0.6-0.4,0.95-1,0.95l-2.4,0c-2.6,0-3.75-1.25-4.1-2.95l-0.1,0c-1.25,1.85-4.5,3.55-7.25,3.55c-7.05,0-10.25-5.8-10.25-12.3c0-8.65,5.2-13.2,10.8-13.2c2.65,0,5.15,1.2,6.4,2.9l0.1-1.35c0.05-0.55,0.45-0.9,1.05-0.9l3.5,0c0.65,0,1.05,0.35,1.05,1.1l0,17.35c0,0.7,0.1,1.2,0.3,1.45c0.15,0.15,0.35,0.2,0.6,0.2l0.4,0c0.6,0,0.9,0.2,0.9,0.85l0,2.35z M285.35,119.25l0-9.65c-1-1.45-3.05-2.55-4.95-2.55c-3.05,0-5.65,2.6-5.65,7.85c0,4.2,1.6,7.75,5.3,7.75c2.45,0,4.55-1.85,5.3-3.4z M322.525,125.35c0,8.1-3.45,12.6-11.85,12.6c-2.45,0-5-0.5-7.4-1.55c-0.55-0.25-0.8-0.55-0.8-1c0-0.25,0.1-0.45,0.15-0.65l0.7-2.2c0.2-0.55,0.4-0.9,0.75-0.9c0.25,0,0.5,0.1,0.75,0.2c1.8,0.75,3.85,1.3,5.6,1.3c5,0,6.05-2.65,6.05-6.65l0-2c-1.5,1.45-4.3,2.55-6.5,2.55c-3.1,0-5.6-1-7.35-2.85c-2.1-2.15-3.15-5.4-3.15-9.05c0-6.7,3.9-13,11.15-13c1.2,0,2.45,0.3,3.6,0.8c0.95,0.4,1.95,1.15,2.55,2l0.1-1.3c0.05-0.65,0.4-0.9,1.15-0.9l3.3,0c0.9,0,1.2,0.35,1.2,1.2l0,21.4z M316.475,119.75l0-10.3c-1-1.35-2.95-2.45-4.85-2.45c-1.55,0-2.8,0.6-3.7,1.45c-1.55,1.5-2.15,4.05-2.15,6.35c0,2.2,0.5,4.55,2,6c0.9,0.9,2.2,1.35,3.55,1.35c1.95,0,4.15-1.15,5.15-2.4z M353,114.8c0,1.2-0.4,1.45-1.65,1.45l-14.65,0c0.4,3.85,3.2,6.5,7.15,6.5c2.1,0,4.3-0.5,6.15-1.2c0.2-0.05,0.35-0.15,0.55-0.15c0.35,0,0.6,0.2,0.7,0.6l0.7,2.55c0.05,0.25,0.1,0.45,0.1,0.6c0,0.35-0.2,0.6-0.8,0.85c-2.45,1.1-5.8,1.6-8.4,1.6c-7.85,0-12.5-5-12.5-12.8c0-7.5,4.95-12.7,12.4-12.7c3.05,0,5.55,1.15,7.3,3c2.3,2.4,2.95,5.55,2.95,8.95l0,0.75z M347.05,112.3l0-0.55c-0.1-2.6-1.6-5-4.65-5c-3.25,0-5.2,2.6-5.6,5.55l10.25,0z M374.225,102.95c0,0.15,0,0.3-0.05,0.45l-0.55,3.55c-0.05,0.45-0.3,0.65-0.7,0.65l-0.2,0c-0.4-0.1-0.9-0.15-1.35-0.15c-1.7,0-3.55,0.9-4.8,2.4l0,15.9c0,0.8-0.35,1.25-1.2,1.25l-3.65,0c-0.8,0-1.2-0.4-1.2-1.25l0-15.6l0-6.15c0-1,0.5-1.25,1.25-1.25l3.2,0c0.8,0,1.25,0.25,1.25,0.95l0.05,1.6c1.55-1.95,3.25-3.2,6.05-3.2c0.4,0,0.95,0.1,1.4,0.2c0.35,0.1,0.5,0.25,0.5,0.65z"/><path fill="#" d=""/></svg>
